<?xml version="1.0" encoding="UTF-8"?>
<svg width="926px" height="425px" viewBox="0 0 926 425" version="1.1" xmlns="http://www.w3.org/2000/svg" xmlns:xlink="http://www.w3.org/1999/xlink">
    <!-- Generator: Sketch 51.2 (57519) - http://www.bohemiancoding.com/sketch -->
    <title>Group</title>
    <desc>Created with Sketch.</desc>
    <defs></defs>
    <g id="Page-1" stroke="none" stroke-width="1" fill="none" fill-rule="evenodd">
        <g id="Group" transform="translate(-3.000000, -1.000000)">
            <rect id="Rectangle-Copy-5" stroke="#000000" stroke-width="5" fill-opacity="0" fill="#FFFFFF" transform="translate(840.739670, 247.373503) rotate(-83.000000) translate(-840.739670, -247.373503) " x="800.73967" y="190.873503" width="80" height="113" rx="11"></rect>
            <rect id="Rectangle-Copy-4" stroke="#000000" stroke-width="5" fill-opacity="0" fill="#FFFFFF" transform="translate(852.739670, 148.373503) rotate(-83.000000) translate(-852.739670, -148.373503) " x="812.73967" y="91.8735027" width="80" height="113" rx="11"></rect>
            <rect id="Rectangle" stroke="#000000" stroke-width="5" fill-opacity="0" fill="#FFFFFF" transform="translate(139.587670, 208.451760) rotate(-14.000000) translate(-139.587670, -208.451760) " x="13.5876701" y="152.95176" width="252" height="111" rx="11"></rect>
            <text id="ひとつ" font-family="HiraginoSans-W5, Hiragino Sans" font-size="36" font-weight="400" fill="#000000">
                <tspan x="105" y="424">ひとつ</tspan>
            </text>
            <rect id="Rectangle-Copy" stroke="#000000" stroke-width="5" fill-opacity="0" fill="#FFFFFF" transform="translate(464.578714, 120.000000) rotate(24.000000) translate(-464.578714, -120.000000) " x="404.578714" y="63.5" width="120" height="113" rx="11"></rect>
            <rect id="Rectangle-Copy-3" stroke="#000000" stroke-width="5" fill-opacity="0" fill="#FFFFFF" transform="translate(587.578714, 177.000000) rotate(24.000000) translate(-587.578714, -177.000000) " x="527.578714" y="120.5" width="120" height="113" rx="11"></rect>
            <rect id="Rectangle-Copy-2" stroke="#000000" stroke-width="5" fill-opacity="0" fill="#FFFFFF" transform="translate(865.739670, 49.373503) rotate(-83.000000) translate(-865.739670, -49.373503) " x="825.73967" y="-7.12649729" width="80" height="113" rx="11"></rect>
            <text id="ふたつ" font-family="HiraginoSans-W5, Hiragino Sans" font-size="36" font-weight="400" fill="#000000">
                <tspan x="452" y="424">ふたつ</tspan>
            </text>
            <text id="みっつ" font-family="HiraginoSans-W5, Hiragino Sans" font-size="36" font-weight="400" fill="#000000">
                <tspan x="799" y="424">みっつ</tspan>
            </text>
        </g>
    </g>
</svg>